<svg xmlns="http://www.w3.org/2000/svg" xmlns:xlink="http://www.w3.org/1999/xlink" contentStyleType="text/css" data-diagram-type="ACTIVITY" height="484px" preserveAspectRatio="none" style="width:743px;height:484px;background:#FFFFFF;" version="1.1" viewBox="0 0 743 484" width="743px" zoomAndPan="magnify"><title>Trade-off Spectrum: When Does the Work Happen?</title><defs/><g><g class="title" data-source-line="6"><text fill="#000000" font-family="Arial" font-size="22" font-weight="bold" lengthAdjust="spacing" textLength="536.583" x="101.8799" y="35.6357">Trade-off Spectrum: When Does the Work Happen?</text></g><rect fill="#FFFFFF" height="16.0986" style="stroke:#FFFFFF;stroke-width:1;" width="720.3428" x="10" y="52.7646"/><ellipse cx="106.9238" cy="83.8633" fill="#FFFFFF" rx="10" ry="10" style="stroke:#000000;stroke-width:1;"/><path d="M213.5581,103.8633 L213.5581,129.0112 L193.5581,133.0112 L213.5581,137.0112 L213.5581,162.1592 A0,0 0 0 0 213.5581,162.1592 L383.1646,162.1592 A0,0 0 0 0 383.1646,162.1592 L383.1646,113.8633 L373.1646,103.8633 L213.5581,103.8633 A0,0 0 0 0 213.5581,103.8633" fill="#FFFFFF" style="stroke:#000000;stroke-width:1;"/><path d="M373.1646,103.8633 L373.1646,113.8633 L383.1646,113.8633 L373.1646,103.8633" fill="#FFFFFF" style="stroke:#000000;stroke-width:1;"/><text fill="#000000" font-family="Arial" font-size="14" font-weight="bold" lengthAdjust="spacing" textLength="96.4688" x="219.5581" y="121.9951">Rust typestate</text><text fill="#000000" font-family="Arial" font-size="14" lengthAdjust="spacing" textLength="148.6064" x="219.5581" y="138.0938">Compiler proves validity</text><text fill="#000000" font-family="Arial" font-size="14" lengthAdjust="spacing" textLength="105.8135" x="219.5581" y="154.1924">&#8594; 0 runtime cost</text><rect fill="#FFFFFF" height="36.0986" rx="12.5" ry="12.5" style="stroke:#000000;stroke-width:1;" width="173.2686" x="20.2896" y="114.9619"/><text fill="#000000" font-family="Arial" font-size="14" lengthAdjust="spacing" textLength="153.2686" x="30.2896" y="138.0938">Compile-time verification</text><path d="M196.8306,172.1592 L196.8306,197.3071 L176.8306,201.3071 L196.8306,205.3071 L196.8306,230.4551 A0,0 0 0 0 196.8306,230.4551 L364.9058,230.4551 A0,0 0 0 0 364.9058,230.4551 L364.9058,182.1592 L354.9058,172.1592 L196.8306,172.1592 A0,0 0 0 0 196.8306,172.1592" fill="#FFFFFF" style="stroke:#000000;stroke-width:1;"/><path d="M354.9058,172.1592 L354.9058,182.1592 L364.9058,182.1592 L354.9058,172.1592" fill="#FFFFFF" style="stroke:#000000;stroke-width:1;"/><text fill="#000000" font-family="Arial" font-size="14" font-weight="bold" lengthAdjust="spacing" textLength="100.3721" x="202.8306" y="190.291">B-Tree indexes</text><text fill="#000000" font-family="Arial" font-size="14" lengthAdjust="spacing" textLength="147.0752" x="202.8306" y="206.3896">Maintain order on insert</text><text fill="#000000" font-family="Arial" font-size="14" lengthAdjust="spacing" textLength="115.1514" x="202.8306" y="222.4883">&#8594; Fast reads later</text><rect fill="#FFFFFF" height="36.0986" rx="12.5" ry="12.5" style="stroke:#000000;stroke-width:1;" width="139.8135" x="37.0171" y="183.2578"/><text fill="#000000" font-family="Arial" font-size="14" lengthAdjust="spacing" textLength="119.8135" x="47.0171" y="206.3896">Write-time indexing</text><path d="M217.8477,240.4551 L217.8477,265.603 L197.8477,269.603 L217.8477,273.603 L217.8477,298.751 A0,0 0 0 0 217.8477,298.751 L385.1162,298.751 A0,0 0 0 0 385.1162,298.751 L385.1162,250.4551 L375.1162,240.4551 L217.8477,240.4551 A0,0 0 0 0 217.8477,240.4551" fill="#FFFFFF" style="stroke:#000000;stroke-width:1;"/><path d="M375.1162,240.4551 L375.1162,250.4551 L385.1162,250.4551 L375.1162,240.4551" fill="#FFFFFF" style="stroke:#000000;stroke-width:1;"/><text fill="#000000" font-family="Arial" font-size="14" font-weight="bold" lengthAdjust="spacing" textLength="106.5449" x="223.8477" y="258.5869">Huffman coding</text><text fill="#000000" font-family="Arial" font-size="14" lengthAdjust="spacing" textLength="124.5166" x="223.8477" y="274.6855">Build frequency tree</text><text fill="#000000" font-family="Arial" font-size="14" lengthAdjust="spacing" textLength="146.2686" x="223.8477" y="290.7842">&#8594; Shorter transmission</text><rect fill="#FFFFFF" height="36.0986" rx="12.5" ry="12.5" style="stroke:#000000;stroke-width:1;" width="181.8477" x="16" y="251.5537"/><text fill="#000000" font-family="Arial" font-size="14" lengthAdjust="spacing" textLength="161.8477" x="26" y="274.6855">Encode-time compression</text><line style="stroke:#000000;stroke-width:1;" x1="10" x2="10" y1="52.7646" y2="477.3428"/><path d="M566.4536,308.751 L566.4536,333.8989 L546.4536,337.8989 L566.4536,341.8989 L566.4536,367.0469 A0,0 0 0 0 566.4536,367.0469 L724.3979,367.0469 A0,0 0 0 0 724.3979,367.0469 L724.3979,318.751 L714.3979,308.751 L566.4536,308.751 A0,0 0 0 0 566.4536,308.751" fill="#FFFFFF" style="stroke:#000000;stroke-width:1;"/><path d="M714.3979,308.751 L714.3979,318.751 L724.3979,318.751 L714.3979,308.751" fill="#FFFFFF" style="stroke:#000000;stroke-width:1;"/><text fill="#000000" font-family="Arial" font-size="14" font-weight="bold" lengthAdjust="spacing" textLength="80.1445" x="572.4536" y="326.8828">Defensive C</text><text fill="#000000" font-family="Arial" font-size="14" lengthAdjust="spacing" textLength="136.9443" x="572.4536" y="342.9814">Check state every call</text><text fill="#000000" font-family="Arial" font-size="14" lengthAdjust="spacing" textLength="107.7959" x="572.4536" y="359.0801">&#8594; 3.5&#215; overhead</text><rect fill="#FFFFFF" height="36.0986" rx="12.5" ry="12.5" style="stroke:#000000;stroke-width:1;" width="135.9375" x="410.5161" y="319.8496"/><text fill="#000000" font-family="Arial" font-size="14" lengthAdjust="spacing" textLength="115.9375" x="420.5161" y="342.9814">Run-time checking</text><path d="M580.8535,377.0469 L580.8535,402.1948 L560.8535,406.1948 L580.8535,410.1948 L580.8535,435.3428 A0,0 0 0 0 580.8535,435.3428 L719.377,435.3428 A0,0 0 0 0 719.377,435.3428 L719.377,387.0469 L709.377,377.0469 L580.8535,377.0469 A0,0 0 0 0 580.8535,377.0469" fill="#FFFFFF" style="stroke:#000000;stroke-width:1;"/><path d="M709.377,377.0469 L709.377,387.0469 L719.377,387.0469 L709.377,377.0469" fill="#FFFFFF" style="stroke:#000000;stroke-width:1;"/><text fill="#000000" font-family="Arial" font-size="14" font-weight="bold" lengthAdjust="spacing" textLength="97.248" x="586.8535" y="395.1787">Full table scan</text><text fill="#000000" font-family="Arial" font-size="14" lengthAdjust="spacing" textLength="117.5234" x="586.8535" y="411.2773">No index overhead</text><text fill="#000000" font-family="Arial" font-size="14" lengthAdjust="spacing" textLength="98.041" x="586.8535" y="427.376">&#8594; Slow queries</text><rect fill="#FFFFFF" height="36.0986" rx="12.5" ry="12.5" style="stroke:#000000;stroke-width:1;" width="164.7373" x="396.1162" y="388.1455"/><text fill="#000000" font-family="Arial" font-size="14" lengthAdjust="spacing" textLength="144.7373" x="406.1162" y="411.2773">Read-time computation</text><ellipse cx="478.4849" cy="466.3428" fill="none" rx="11" ry="11" style="stroke:#000000;stroke-width:1;"/><ellipse cx="478.4849" cy="466.3428" fill="#FFFFFF" rx="6" ry="6" style="stroke:#000000;stroke-width:1;"/><line style="stroke:#000000;stroke-width:1;" x1="390.1162" x2="390.1162" y1="52.7646" y2="477.3428"/><line style="stroke:#000000;stroke-width:1;" x1="729.3979" x2="729.3979" y1="52.7646" y2="477.3428"/><line style="stroke:#000000;stroke-width:1;" x1="106.9238" x2="106.9238" y1="93.8633" y2="114.9619"/><polygon fill="#000000" points="102.9238,104.9619,106.9238,114.9619,110.9238,104.9619,106.9238,108.9619" style="stroke:#000000;stroke-width:1;"/><line style="stroke:#000000;stroke-width:1;" x1="106.9238" x2="106.9238" y1="151.0605" y2="183.2578"/><polygon fill="#000000" points="102.9238,173.2578,106.9238,183.2578,110.9238,173.2578,106.9238,177.2578" style="stroke:#000000;stroke-width:1;"/><line style="stroke:#000000;stroke-width:1;" x1="106.9238" x2="106.9238" y1="219.3564" y2="251.5537"/><polygon fill="#000000" points="102.9238,241.5537,106.9238,251.5537,110.9238,241.5537,106.9238,245.5537" style="stroke:#000000;stroke-width:1;"/><line style="stroke:#000000;stroke-width:1;" x1="478.4849" x2="478.4849" y1="355.9482" y2="388.1455"/><polygon fill="#000000" points="474.4849,378.1455,478.4849,388.1455,482.4849,378.1455,478.4849,382.1455" style="stroke:#000000;stroke-width:1;"/><line style="stroke:#000000;stroke-width:1;" x1="478.4849" x2="478.4849" y1="424.2441" y2="455.3428"/><polygon fill="#000000" points="474.4849,445.3428,478.4849,455.3428,482.4849,445.3428,478.4849,449.3428" style="stroke:#000000;stroke-width:1;"/><line style="stroke:#000000;stroke-width:1;" x1="106.9238" x2="106.9238" y1="287.6523" y2="303.751"/><line style="stroke:#000000;stroke-width:1;" x1="106.9238" x2="478.4849" y1="303.751" y2="303.751"/><line style="stroke:#000000;stroke-width:1;" x1="478.4849" x2="478.4849" y1="303.751" y2="319.8496"/><polygon fill="#000000" points="474.4849,309.8496,478.4849,319.8496,482.4849,309.8496,478.4849,313.8496" style="stroke:#000000;stroke-width:1;"/><text fill="#000000" font-family="Arial" font-size="14" lengthAdjust="spacing" textLength="132.248" x="133.9341" y="65.8965">Early (One-time cost)</text><text fill="#000000" font-family="Arial" font-size="14" lengthAdjust="spacing" textLength="130.7441" x="494.385" y="65.8965">Late (Repeated cost)</text><!--SRC=[RPBFRXCn4CRlVehXLY85WO3BSa0qRTG352cfb4ilq_LireftRCRZbA2SUG0kF11lmfDqyeU0K0vhhJoU-NtVPp_JdWQ2736mAwl06GK7UC1sjPHKsKzIJ0AFVL3wf-wfmnfrcbXlqVe_IC1ulZuFtmXUlN5EWqQ2Eq5FuzHrCC_KgjIXWKLF35U92fWQM2HPmGtcJFpUkUqrIjp0nMUciGP3jQdeywqhYgAkcQGXXtWihKb25rhKaFYTuwG44fQzDZ0QpMfHq4qcQrGQZUxvs2gG9QsDlSOOVD3DFV_-_WDUWbG-0Lsp44lWW0diwMlWvV-8o_6TqB5CPOVuPAcgVP346oYn5Gk97X1JD4b2w0j4qoIkkUOs-PFF8GkLSiRBJUsw0TcEU9En0rtM43rqGbygSRi1DI47oBnFOhDj1xaCOJ_FRJyQ3ovcbCb-_9zCcrdb8xodTdN6uXLrn2Mi2IRx27V7O9yeaAM_WHPZF81VltZxwoTOijARHPjjwrzdLS_UqhJ628eFzb1AYxnZtAP3egTHHrynFOAvbK357aFAxWa0]--></g></svg>