<svg xmlns="http://www.w3.org/2000/svg" xmlns:xlink="http://www.w3.org/1999/xlink" contentStyleType="text/css" data-diagram-type="STATE" height="462px" preserveAspectRatio="none" style="width:467px;height:462px;background:#FEFEFE;" version="1.1" viewBox="0 0 467 462" width="467px" zoomAndPan="magnify"><title>File Handle State Machine</title><defs/><g><rect fill="#FEFEFE" height="462" style="stroke:none;stroke-width:1;" width="467" x="0" y="0"/><g class="title" data-source-line="14"><text fill="#000000" font-family="Verdana" font-size="22" font-weight="bold" lengthAdjust="spacing" textLength="319.7627" x="69.4641" y="37.1182">File Handle State Machine</text></g><g id="Closed"><rect fill="#ADD8E6" height="50" rx="12.5" ry="12.5" style="stroke:#333333;stroke-width:1;" width="63.5791" x="89.33" y="154.7373"/><line style="stroke:#333333;stroke-width:1;" x1="89.33" x2="152.9091" y1="180.8359" y2="180.8359"/><text fill="#000000" font-family="Arial" font-size="14" lengthAdjust="spacing" textLength="43.5791" x="99.33" y="172.8691">Closed</text></g><g id="Open"><rect fill="#90EE90" height="50" rx="12.5" ry="12.5" style="stroke:#333333;stroke-width:1;" width="54.248" x="12" y="280.7373"/><line style="stroke:#333333;stroke-width:1;" x1="12" x2="66.248" y1="306.8359" y2="306.8359"/><text fill="#000000" font-family="Arial" font-size="14" lengthAdjust="spacing" textLength="34.248" x="22" y="298.8691">Open</text></g><g id="Readable"><rect fill="#FFFFE0" height="50" rx="12.5" ry="12.5" style="stroke:#333333;stroke-width:1;" width="79.9375" x="158.16" y="406.7373"/><line style="stroke:#333333;stroke-width:1;" x1="158.16" x2="238.0975" y1="432.8359" y2="432.8359"/><text fill="#000000" font-family="Arial" font-size="14" lengthAdjust="spacing" textLength="59.9375" x="168.16" y="424.8691">Readable</text></g><ellipse cx="121.12" cy="68.7373" fill="#FFFFFF" rx="10" ry="10" style="stroke:#000000;stroke-width:1;"/><g class="entity" data-entity="GMN2" data-source-line="33" data-uid="ent0003" id="entity_GMN2"><path d="M187.76,158.9373 L187.76,175.7373 L153.33,179.7373 L187.76,183.7373 L187.76,200.5359 A0,0 0 0 0 187.76,200.5359 L394.4924,200.5359 A0,0 0 0 0 394.4924,200.5359 L394.4924,168.9373 L384.4924,158.9373 L187.76,158.9373 A0,0 0 0 0 187.76,158.9373" fill="#FFFFFF" style="stroke:#000000;stroke-width:1;"/><path d="M384.4924,158.9373 L384.4924,168.9373 L394.4924,168.9373 L384.4924,158.9373" fill="#FFFFFF" style="stroke:#000000;stroke-width:1;"/><text fill="#000000" font-family="Verdana" font-size="13" lengthAdjust="spacing" textLength="119.2915" x="193.76" y="177.0071">No file associated.</text><text fill="#000000" font-family="Verdana" font-size="13" lengthAdjust="spacing" textLength="185.7324" x="193.76" y="192.8064">Only valid operation: open()</text></g><g class="entity" data-entity="GMN5" data-source-line="38" data-uid="ent0006" id="entity_GMN5"><path d="M101.44,284.9373 L101.44,301.7373 L66.67,305.7373 L101.44,309.7373 L101.44,326.5359 A0,0 0 0 0 101.44,326.5359 L286.7999,326.5359 A0,0 0 0 0 286.7999,326.5359 L286.7999,294.9373 L276.7999,284.9373 L101.44,284.9373 A0,0 0 0 0 101.44,284.9373" fill="#FFFFFF" style="stroke:#000000;stroke-width:1;"/><path d="M276.7999,284.9373 L276.7999,294.9373 L286.7999,294.9373 L276.7999,284.9373" fill="#FFFFFF" style="stroke:#000000;stroke-width:1;"/><text fill="#000000" font-family="Verdana" font-size="13" lengthAdjust="spacing" textLength="164.3599" x="107.44" y="303.0071">File ready for operations.</text><text fill="#000000" font-family="Verdana" font-size="13" lengthAdjust="spacing" textLength="137.2617" x="107.44" y="318.8064">Valid: read(), close()</text></g><g class="entity" data-entity="GMN8" data-source-line="43" data-uid="ent0009" id="entity_GMN8"><path d="M273.56,410.9373 L273.56,427.7373 L238.39,431.7373 L273.56,435.7373 L273.56,452.5359 A0,0 0 0 0 273.56,452.5359 L460.6909,452.5359 A0,0 0 0 0 460.6909,452.5359 L460.6909,420.9373 L450.6909,410.9373 L273.56,410.9373 A0,0 0 0 0 273.56,410.9373" fill="#FFFFFF" style="stroke:#000000;stroke-width:1;"/><path d="M450.6909,410.9373 L450.6909,420.9373 L460.6909,420.9373 L450.6909,410.9373" fill="#FFFFFF" style="stroke:#000000;stroke-width:1;"/><text fill="#000000" font-family="Verdana" font-size="13" lengthAdjust="spacing" textLength="155.9683" x="279.56" y="429.0071">Data loaded into buffer.</text><text fill="#000000" font-family="Verdana" font-size="13" lengthAdjust="spacing" textLength="166.1309" x="279.56" y="444.8064">Valid: get_data(), close()</text></g><!--link *start* to Closed--><g class="link" data-entity-1=".start." data-entity-2="Closed" data-source-line="16" data-uid="lnk3" id="link_.start._Closed"><path d="M121.12,79.0273 C121.12,95.6073 121.12,124.7673 121.12,148.5873" fill="none" id="*start*-to-Closed" style="stroke:#333333;stroke-width:1;"/><polygon fill="#333333" points="121.12,154.5873,125.12,145.5873,121.12,149.5873,117.12,145.5873,121.12,154.5873" style="stroke:#333333;stroke-width:1;"/><text fill="#000000" font-family="Verdana" font-size="12" lengthAdjust="spacing" textLength="48.5039" x="122.12" y="121.8018">create()</text></g><!--link Closed to Open--><g class="link" data-entity-1="Closed" data-entity-2="Open" data-source-line="27" data-uid="lnk4" id="link_Closed_Open"><path d="M88.87,192.0473 C69.83,200.5773 47.32,214.3573 36.12,234.7373 C28.57,248.4873 28.2767,260.2615 30.9467,274.4015" fill="none" id="Closed-to-Open" style="stroke:#333333;stroke-width:1;"/><polygon fill="#333333" points="32.06,280.2973,34.3206,270.7114,31.1323,275.3841,26.4595,272.1958,32.06,280.2973" style="stroke:#333333;stroke-width:1;"/><text fill="#000000" font-family="Verdana" font-size="12" lengthAdjust="spacing" textLength="40.4004" x="37.12" y="247.8018">open()</text></g><!--link Open to Closed--><g class="link" data-entity-1="Open" data-entity-2="Closed" data-source-line="30" data-uid="lnk7" id="link_Open_Closed"><path d="M59.92,280.3773 C67.27,271.3173 75.39,260.7973 82.12,250.7373 C91.96,236.0573 98.8285,224.0231 106.0885,210.2731" fill="none" id="Open-to-Closed" style="stroke:#333333;stroke-width:1;"/><polygon fill="#333333" points="108.89,204.9673,101.1506,211.0584,106.5554,209.3888,108.225,214.7937,108.89,204.9673" style="stroke:#333333;stroke-width:1;"/><text fill="#000000" font-family="Verdana" font-size="12" lengthAdjust="spacing" textLength="41.127" x="92.51" y="247.8018">close()</text></g><!--link Open to Readable--><g class="link" data-entity-1="Open" data-entity-2="Readable" data-source-line="28" data-uid="lnk5" id="link_Open_Readable"><path d="M66.46,328.0573 C94.34,349.7973 132.8086,379.7976 162.0586,402.6076" fill="none" id="Open-to-Readable" style="stroke:#333333;stroke-width:1;"/><polygon fill="#333333" points="166.79,406.2973,162.1527,397.6085,162.8472,403.2226,157.2331,403.917,166.79,406.2973" style="stroke:#333333;stroke-width:1;"/><text fill="#000000" font-family="Verdana" font-size="12" lengthAdjust="spacing" textLength="37.8516" x="129.14" y="373.8018">read()</text></g><!--link Readable to Closed--><g class="link" data-entity-1="Readable" data-entity-2="Closed" data-source-line="29" data-uid="lnk6" id="link_Readable_Closed"><path d="M236.42,406.3373 C276.94,377.3173 331.53,326.9473 304.12,280.7373 C299.82,273.4773 209.9927,226.4673 158.6427,199.9873" fill="none" id="Readable-to-Closed" style="stroke:#333333;stroke-width:1;"/><polygon fill="#333333" points="153.31,197.2373,159.4758,204.9174,157.7539,199.5289,163.1424,197.8071,153.31,197.2373" style="stroke:#333333;stroke-width:1;"/><text fill="#000000" font-family="Verdana" font-size="12" lengthAdjust="spacing" textLength="41.127" x="312.53" y="310.8018">close()</text></g><!--SRC=[TL5BImCn43utlsB4YueAFWxIWs2rrOEsO44G4PbkPjjWcYdPLAdI_-xCThkirMvWayptc6zsTzA4fWGpZowOujs56KQSmWYpzt7aUR3Nx3d2Rg-hgy4e4YQ2RzFgR5Ax5xe4u6WfLiMpyZ6j7eSqT5y49-UhIn-b_LLqwCsoOOynygVQRzMV2jyabpn1pydh3eELRLZcUi1iuW8PytBm2aT7bt3jkI0BRSWY2M5ltvZL11MmU-_6azJnSvrfkGO7CmeLT1j9pWtiaT3YI3gky6VolamiXCfJ-vOERM3Pf6Tvqt8jReFaiGBLbTzfzT0K_a5CO0aJDG9mNk46eC-GwsV1ek3CIM1xBDL1y0luGE-iHegO78Sw7GKBwhRfgSr5MtvbJRk0N7v9hI_K-4azryCSrkcsMQwd5UKD9WJFQ6Ki5nB3Q9xd51kcOqflLbZ_6ly0]--></g></svg>