<svg xmlns="http://www.w3.org/2000/svg" xmlns:xlink="http://www.w3.org/1999/xlink" contentStyleType="text/css" data-diagram-type="STATE" height="415px" preserveAspectRatio="none" style="width:467px;height:415px;background:#FEFEFE;" version="1.1" viewBox="0 0 467 415" width="467px" zoomAndPan="magnify"><defs/><g><rect fill="#FEFEFE" height="415" style="stroke:none;stroke-width:1;" width="467" x="0" y="0"/><g id="Closed"><rect fill="#ADD8E6" height="50" rx="12.5" ry="12.5" style="stroke:#333333;stroke-width:1;" width="63.5791" x="89.33" y="107"/><line style="stroke:#333333;stroke-width:1;" x1="89.33" x2="152.9091" y1="133.0986" y2="133.0986"/><text fill="#000000" font-family="Arial" font-size="14" lengthAdjust="spacing" textLength="43.5791" x="99.33" y="125.1318">Closed</text></g><g id="Open"><rect fill="#90EE90" height="50" rx="12.5" ry="12.5" style="stroke:#333333;stroke-width:1;" width="54.248" x="12" y="233"/><line style="stroke:#333333;stroke-width:1;" x1="12" x2="66.248" y1="259.0986" y2="259.0986"/><text fill="#000000" font-family="Arial" font-size="14" lengthAdjust="spacing" textLength="34.248" x="22" y="251.1318">Open</text></g><g id="Readable"><rect fill="#FFFFE0" height="50" rx="12.5" ry="12.5" style="stroke:#333333;stroke-width:1;" width="79.9375" x="158.16" y="359"/><line style="stroke:#333333;stroke-width:1;" x1="158.16" x2="238.0975" y1="385.0986" y2="385.0986"/><text fill="#000000" font-family="Arial" font-size="14" lengthAdjust="spacing" textLength="59.9375" x="168.16" y="377.1318">Readable</text></g><ellipse cx="121.12" cy="21" fill="#FFFFFF" rx="10" ry="10" style="stroke:#000000;stroke-width:1;"/><g class="entity" data-entity="GMN2" data-source-line="33" data-uid="ent0003" id="entity_GMN2"><path d="M187.76,111.2 L187.76,128 L153.33,132 L187.76,136 L187.76,152.7986 A0,0 0 0 0 187.76,152.7986 L394.4924,152.7986 A0,0 0 0 0 394.4924,152.7986 L394.4924,121.2 L384.4924,111.2 L187.76,111.2 A0,0 0 0 0 187.76,111.2" fill="#FFFFFF" style="stroke:#000000;stroke-width:1;"/><path d="M384.4924,111.2 L384.4924,121.2 L394.4924,121.2 L384.4924,111.2" fill="#FFFFFF" style="stroke:#000000;stroke-width:1;"/><text fill="#000000" font-family="Verdana" font-size="13" lengthAdjust="spacing" textLength="119.2915" x="193.76" y="129.2698">No file associated.</text><text fill="#000000" font-family="Verdana" font-size="13" lengthAdjust="spacing" textLength="185.7324" x="193.76" y="145.0691">Only valid operation: open()</text></g><g class="entity" data-entity="GMN5" data-source-line="38" data-uid="ent0006" id="entity_GMN5"><path d="M101.44,237.2 L101.44,254 L66.67,258 L101.44,262 L101.44,278.7986 A0,0 0 0 0 101.44,278.7986 L286.7999,278.7986 A0,0 0 0 0 286.7999,278.7986 L286.7999,247.2 L276.7999,237.2 L101.44,237.2 A0,0 0 0 0 101.44,237.2" fill="#FFFFFF" style="stroke:#000000;stroke-width:1;"/><path d="M276.7999,237.2 L276.7999,247.2 L286.7999,247.2 L276.7999,237.2" fill="#FFFFFF" style="stroke:#000000;stroke-width:1;"/><text fill="#000000" font-family="Verdana" font-size="13" lengthAdjust="spacing" textLength="164.3599" x="107.44" y="255.2698">File ready for operations.</text><text fill="#000000" font-family="Verdana" font-size="13" lengthAdjust="spacing" textLength="137.2617" x="107.44" y="271.0691">Valid: read(), close()</text></g><g class="entity" data-entity="GMN8" data-source-line="43" data-uid="ent0009" id="entity_GMN8"><path d="M273.56,363.2 L273.56,380 L238.39,384 L273.56,388 L273.56,404.7986 A0,0 0 0 0 273.56,404.7986 L460.6909,404.7986 A0,0 0 0 0 460.6909,404.7986 L460.6909,373.2 L450.6909,363.2 L273.56,363.2 A0,0 0 0 0 273.56,363.2" fill="#FFFFFF" style="stroke:#000000;stroke-width:1;"/><path d="M450.6909,363.2 L450.6909,373.2 L460.6909,373.2 L450.6909,363.2" fill="#FFFFFF" style="stroke:#000000;stroke-width:1;"/><text fill="#000000" font-family="Verdana" font-size="13" lengthAdjust="spacing" textLength="155.9683" x="279.56" y="381.2698">Data loaded into buffer.</text><text fill="#000000" font-family="Verdana" font-size="13" lengthAdjust="spacing" textLength="166.1309" x="279.56" y="397.0691">Valid: get_data(), close()</text></g><!--link *start* to Closed--><g class="link" data-entity-1=".start." data-entity-2="Closed" data-source-line="16" data-uid="lnk3" id="link_.start._Closed"><path d="M121.12,31.29 C121.12,47.87 121.12,77.03 121.12,100.85" fill="none" id="*start*-to-Closed" style="stroke:#333333;stroke-width:1;"/><polygon fill="#333333" points="121.12,106.85,125.12,97.85,121.12,101.85,117.12,97.85,121.12,106.85" style="stroke:#333333;stroke-width:1;"/><text fill="#000000" font-family="Verdana" font-size="12" lengthAdjust="spacing" textLength="48.5039" x="122.12" y="74.0645">create()</text></g><!--link Closed to Open--><g class="link" data-entity-1="Closed" data-entity-2="Open" data-source-line="27" data-uid="lnk4" id="link_Closed_Open"><path d="M88.87,144.31 C69.83,152.84 47.32,166.62 36.12,187 C28.57,200.75 28.2767,212.5242 30.9467,226.6642" fill="none" id="Closed-to-Open" style="stroke:#333333;stroke-width:1;"/><polygon fill="#333333" points="32.06,232.56,34.3206,222.9741,31.1323,227.6468,26.4595,224.4585,32.06,232.56" style="stroke:#333333;stroke-width:1;"/><text fill="#000000" font-family="Verdana" font-size="12" lengthAdjust="spacing" textLength="40.4004" x="37.12" y="200.0645">open()</text></g><!--link Open to Closed--><g class="link" data-entity-1="Open" data-entity-2="Closed" data-source-line="30" data-uid="lnk7" id="link_Open_Closed"><path d="M59.92,232.64 C67.27,223.58 75.39,213.06 82.12,203 C91.96,188.32 98.8285,176.2858 106.0885,162.5358" fill="none" id="Open-to-Closed" style="stroke:#333333;stroke-width:1;"/><polygon fill="#333333" points="108.89,157.23,101.1506,163.3211,106.5554,161.6515,108.225,167.0564,108.89,157.23" style="stroke:#333333;stroke-width:1;"/><text fill="#000000" font-family="Verdana" font-size="12" lengthAdjust="spacing" textLength="41.127" x="92.51" y="200.0645">close()</text></g><!--link Open to Readable--><g class="link" data-entity-1="Open" data-entity-2="Readable" data-source-line="28" data-uid="lnk5" id="link_Open_Readable"><path d="M66.46,280.32 C94.34,302.06 132.8086,332.0603 162.0586,354.8703" fill="none" id="Open-to-Readable" style="stroke:#333333;stroke-width:1;"/><polygon fill="#333333" points="166.79,358.56,162.1527,349.8712,162.8472,355.4853,157.2331,356.1797,166.79,358.56" style="stroke:#333333;stroke-width:1;"/><text fill="#000000" font-family="Verdana" font-size="12" lengthAdjust="spacing" textLength="37.8516" x="129.14" y="326.0645">read()</text></g><!--link Readable to Closed--><g class="link" data-entity-1="Readable" data-entity-2="Closed" data-source-line="29" data-uid="lnk6" id="link_Readable_Closed"><path d="M236.42,358.6 C276.94,329.58 331.53,279.21 304.12,233 C299.82,225.74 209.9927,178.73 158.6427,152.25" fill="none" id="Readable-to-Closed" style="stroke:#333333;stroke-width:1;"/><polygon fill="#333333" points="153.31,149.5,159.4758,157.1801,157.7539,151.7916,163.1424,150.0698,153.31,149.5" style="stroke:#333333;stroke-width:1;"/><text fill="#000000" font-family="Verdana" font-size="12" lengthAdjust="spacing" textLength="41.127" x="312.53" y="263.0645">close()</text></g><!--SRC=[TL5BImCn43wRNp7IWm-iuECWFGYsMZtu00k2YCXqCzk6nap9fagL_dTdjjjbhNO3csI-ntopkvt6z4umzUY2AIOkJ37YEmmncumYpuBjiUS8hVwLhWQZI9W8lirMTvrwTQPB08wMObKyAH-prUUG1kwBuEXqURb7QNyH7NgpQDXZZFofzXlrny8tEv1SyWHz9wyR35QsGPdi3hEn2sJCo_uhjDldqFDSa8KEP964iBjdp7A62cZTkj4uTVrCfrgim8SfXGgwZYJd1lP8Q74e7PVuCtbVPXP2vQbzIuSEi6pIixnfkHPtGF9OWUhAxxHwQ0h_82QmX8aQ0JYlS0Dmpv3hPy6YuCn9O7ierOVWv_21tbcD534v3dKw2XRKRTrJcuks_CgQTWwv_9HQNwZnatgkXZceqssoN4qhoajC29xHobWk98RXBCyfDan7bDwiiFur_W40]--></g></svg>