<?xml version="1.0" encoding="us-ascii" standalone="no"?><svg xmlns="http://www.w3.org/2000/svg" xmlns:xlink="http://www.w3.org/1999/xlink" contentStyleType="text/css" height="488px" preserveAspectRatio="none" style="width:1267px;height:488px;background:#FFFFFF;" version="1.1" viewBox="0 0 1267 488" width="1267px" zoomAndPan="magnify"><defs/><g><!--class User--><g id="elem_User"><rect codeLine="7" fill="#F1F1F1" height="105.9531" id="User" rx="2.5" ry="2.5" style="stroke:#181818;stroke-width:0.5;" width="190" x="7" y="301.76"/><ellipse cx="82.25" cy="317.76" fill="#ADD1B2" rx="11" ry="11" style="stroke:#181818;stroke-width:1.0;"/><path d="M84.7231,323.9031 Q84.1421,324.2019 83.5029,324.3513 Q82.8638,324.5007 82.1582,324.5007 Q79.6514,324.5007 78.3315,322.8489 Q77.0117,321.197 77.0117,318.0759 Q77.0117,314.9465 78.3315,313.2947 Q79.6514,311.6428 82.1582,311.6428 Q82.8638,311.6428 83.5112,311.7922 Q84.1587,311.9416 84.7231,312.2405 L84.7231,314.9631 Q84.0923,314.3821 83.4988,314.1123 Q82.9053,313.8425 82.2744,313.8425 Q80.9297,313.8425 80.2449,314.9092 Q79.5601,315.9758 79.5601,318.0759 Q79.5601,320.1677 80.2449,321.2344 Q80.9297,322.301 82.2744,322.301 Q82.9053,322.301 83.4988,322.0312 Q84.0923,321.7615 84.7231,321.1804 Z " fill="#000000"/><text fill="#000000" font-family="sans-serif" font-size="14" lengthAdjust="spacing" textLength="31" x="102.75" y="323.051">User</text><line style="stroke:#181818;stroke-width:0.5;" x1="8" x2="196" y1="333.76" y2="333.76"/><text fill="#000000" font-family="sans-serif" font-size="14" lengthAdjust="spacing" textLength="59" x="13" y="351.2952">-Long id</text><text fill="#000000" font-family="sans-serif" font-size="14" lengthAdjust="spacing" textLength="121" x="13" y="367.7834">-String username</text><text fill="#000000" font-family="sans-serif" font-size="14" lengthAdjust="spacing" textLength="90" x="13" y="384.2717">-String email</text><text fill="#000000" font-family="sans-serif" font-size="14" lengthAdjust="spacing" textLength="178" x="13" y="400.76">-LocalDateTime createdAt</text></g><!--class Project--><g id="elem_Project"><rect codeLine="14" fill="#F1F1F1" height="105.9531" id="Project" rx="2.5" ry="2.5" style="stroke:#181818;stroke-width:0.5;" width="190" x="332" y="301.76"/><ellipse cx="399.25" cy="317.76" fill="#ADD1B2" rx="11" ry="11" style="stroke:#181818;stroke-width:1.0;"/><path d="M401.7231,323.9031 Q401.1421,324.2019 400.5029,324.3513 Q399.8638,324.5007 399.1582,324.5007 Q396.6514,324.5007 395.3315,322.8489 Q394.0117,321.197 394.0117,318.0759 Q394.0117,314.9465 395.3315,313.2947 Q396.6514,311.6428 399.1582,311.6428 Q399.8638,311.6428 400.5112,311.7922 Q401.1587,311.9416 401.7231,312.2405 L401.7231,314.9631 Q401.0923,314.3821 400.4988,314.1123 Q399.9053,313.8425 399.2744,313.8425 Q397.9297,313.8425 397.2449,314.9092 Q396.5601,315.9758 396.5601,318.0759 Q396.5601,320.1677 397.2449,321.2344 Q397.9297,322.301 399.2744,322.301 Q399.9053,322.301 400.4988,322.0312 Q401.0923,321.7615 401.7231,321.1804 Z " fill="#000000"/><text fill="#000000" font-family="sans-serif" font-size="14" lengthAdjust="spacing" textLength="47" x="419.75" y="323.051">Project</text><line style="stroke:#181818;stroke-width:0.5;" x1="333" x2="521" y1="333.76" y2="333.76"/><text fill="#000000" font-family="sans-serif" font-size="14" lengthAdjust="spacing" textLength="59" x="338" y="351.2952">-Long id</text><text fill="#000000" font-family="sans-serif" font-size="14" lengthAdjust="spacing" textLength="91" x="338" y="367.7834">-String name</text><text fill="#000000" font-family="sans-serif" font-size="14" lengthAdjust="spacing" textLength="130" x="338" y="384.2717">-String description</text><text fill="#000000" font-family="sans-serif" font-size="14" lengthAdjust="spacing" textLength="178" x="338" y="400.76">-LocalDateTime createdAt</text></g><!--class Task--><g id="elem_Task"><rect codeLine="21" fill="#F1F1F1" height="188.3945" id="Task" rx="2.5" ry="2.5" style="stroke:#181818;stroke-width:0.5;" width="196" x="640" y="152.54"/><ellipse cx="717.75" cy="168.54" fill="#ADD1B2" rx="11" ry="11" style="stroke:#181818;stroke-width:1.0;"/><path d="M720.2231,174.6831 Q719.6421,174.9819 719.0029,175.1313 Q718.3638,175.2807 717.6582,175.2807 Q715.1514,175.2807 713.8315,173.6289 Q712.5117,171.977 712.5117,168.8559 Q712.5117,165.7265 713.8315,164.0747 Q715.1514,162.4228 717.6582,162.4228 Q718.3638,162.4228 719.0112,162.5722 Q719.6587,162.7216 720.2231,163.0205 L720.2231,165.7431 Q719.5923,165.1621 718.9988,164.8923 Q718.4053,164.6225 717.7744,164.6225 Q716.4297,164.6225 715.7449,165.6892 Q715.0601,166.7558 715.0601,168.8559 Q715.0601,170.9477 715.7449,172.0144 Q716.4297,173.081 717.7744,173.081 Q718.4053,173.081 718.9988,172.8112 Q719.5923,172.5415 720.2231,171.9604 Z " fill="#000000"/><text fill="#000000" font-family="sans-serif" font-size="14" lengthAdjust="spacing" textLength="32" x="738.25" y="173.831">Task</text><line style="stroke:#181818;stroke-width:0.5;" x1="641" x2="835" y1="184.54" y2="184.54"/><text fill="#000000" font-family="sans-serif" font-size="14" lengthAdjust="spacing" textLength="59" x="646" y="202.0752">-Long id</text><text fill="#000000" font-family="sans-serif" font-size="14" lengthAdjust="spacing" textLength="79" x="646" y="218.5634">-String title</text><text fill="#000000" font-family="sans-serif" font-size="14" lengthAdjust="spacing" textLength="130" x="646" y="235.0517">-String description</text><text fill="#000000" font-family="sans-serif" font-size="14" lengthAdjust="spacing" textLength="111" x="646" y="251.54">-TaskState state</text><text fill="#000000" font-family="sans-serif" font-size="14" lengthAdjust="spacing" textLength="165" x="646" y="268.0283">-TaskCategory category</text><text fill="#000000" font-family="sans-serif" font-size="14" lengthAdjust="spacing" textLength="107" x="646" y="284.5166">-Long projectId</text><text fill="#000000" font-family="sans-serif" font-size="14" lengthAdjust="spacing" textLength="169" x="646" y="301.0048">-Long assignedToUserId</text><text fill="#000000" font-family="sans-serif" font-size="14" lengthAdjust="spacing" textLength="178" x="646" y="317.4931">-LocalDateTime createdAt</text><text fill="#000000" font-family="sans-serif" font-size="14" lengthAdjust="spacing" textLength="184" x="646" y="333.9814">-LocalDateTime updatedAt</text></g><!--class TaskState--><g id="elem_TaskState"><rect codeLine="32" fill="#F1F1F1" height="89.4648" id="TaskState" rx="2.5" ry="2.5" style="stroke:#181818;stroke-width:0.5;" width="104" x="985" y="7"/><ellipse cx="1002.7" cy="23" fill="#EB937F" rx="11" ry="11" style="stroke:#181818;stroke-width:1.0;"/><path d="M1006.3143,29.5 L998.5945,29.5 L998.5945,17.1069 L1006.3143,17.1069 L1006.3143,19.2651 L1001.0433,19.2651 L1001.0433,21.938 L1005.8162,21.938 L1005.8162,24.0962 L1001.0433,24.0962 L1001.0433,27.3418 L1006.3143,27.3418 Z " fill="#000000"/><text fill="#000000" font-family="sans-serif" font-size="14" lengthAdjust="spacing" textLength="66" x="1017.3" y="28.291">TaskState</text><line style="stroke:#181818;stroke-width:0.5;" x1="986" x2="1088" y1="39" y2="39"/><text fill="#000000" font-family="sans-serif" font-size="14" lengthAdjust="spacing" textLength="41" x="991" y="56.5352">TODO</text><text fill="#000000" font-family="sans-serif" font-size="14" lengthAdjust="spacing" textLength="92" x="991" y="73.0234">IN_PROGRESS</text><text fill="#000000" font-family="sans-serif" font-size="14" lengthAdjust="spacing" textLength="39" x="991" y="89.5117">DONE</text></g><!--class TaskCategory--><g id="elem_TaskCategory"><rect codeLine="37" fill="#F1F1F1" height="105.9531" id="TaskCategory" rx="2.5" ry="2.5" style="stroke:#181818;stroke-width:0.5;" width="126" x="974" y="131.76"/><ellipse cx="989" cy="147.76" fill="#EB937F" rx="11" ry="11" style="stroke:#181818;stroke-width:1.0;"/><path d="M992.6143,154.26 L984.8945,154.26 L984.8945,141.8669 L992.6143,141.8669 L992.6143,144.0251 L987.3433,144.0251 L987.3433,146.698 L992.1162,146.698 L992.1162,148.8562 L987.3433,148.8562 L987.3433,152.1018 L992.6143,152.1018 Z " fill="#000000"/><text fill="#000000" font-family="sans-serif" font-size="14" lengthAdjust="spacing" textLength="94" x="1003" y="153.051">TaskCategory</text><line style="stroke:#181818;stroke-width:0.5;" x1="975" x2="1099" y1="163.76" y2="163.76"/><text fill="#000000" font-family="sans-serif" font-size="14" lengthAdjust="spacing" textLength="28" x="980" y="181.2952">BUG</text><text fill="#000000" font-family="sans-serif" font-size="14" lengthAdjust="spacing" textLength="62" x="980" y="197.7834">FEATURE</text><text fill="#000000" font-family="sans-serif" font-size="14" lengthAdjust="spacing" textLength="100" x="980" y="214.2717">IMPROVEMENT</text><text fill="#000000" font-family="sans-serif" font-size="14" lengthAdjust="spacing" textLength="72" x="980" y="230.76">RESEARCH</text></g><!--class Tag--><g id="elem_Tag"><rect codeLine="44" fill="#F1F1F1" height="72.9766" id="Tag" rx="2.5" ry="2.5" style="stroke:#181818;stroke-width:0.5;" width="103" x="985.5" y="272.25"/><ellipse cx="1020.75" cy="288.25" fill="#ADD1B2" rx="11" ry="11" style="stroke:#181818;stroke-width:1.0;"/><path d="M1023.2231,294.3931 Q1022.6421,294.6919 1022.0029,294.8413 Q1021.3638,294.9907 1020.6582,294.9907 Q1018.1514,294.9907 1016.8315,293.3389 Q1015.5117,291.687 1015.5117,288.5659 Q1015.5117,285.4365 1016.8315,283.7847 Q1018.1514,282.1328 1020.6582,282.1328 Q1021.3638,282.1328 1022.0112,282.2822 Q1022.6587,282.4316 1023.2231,282.7305 L1023.2231,285.4531 Q1022.5923,284.8721 1021.9988,284.6023 Q1021.4053,284.3325 1020.7744,284.3325 Q1019.4297,284.3325 1018.7449,285.3992 Q1018.0601,286.4658 1018.0601,288.5659 Q1018.0601,290.6577 1018.7449,291.7244 Q1019.4297,292.791 1020.7744,292.791 Q1021.4053,292.791 1021.9988,292.5212 Q1022.5923,292.2515 1023.2231,291.6704 Z " fill="#000000"/><text fill="#000000" font-family="sans-serif" font-size="14" lengthAdjust="spacing" textLength="26" x="1039.25" y="293.541">Tag</text><line style="stroke:#181818;stroke-width:0.5;" x1="986.5" x2="1087.5" y1="304.25" y2="304.25"/><text fill="#000000" font-family="sans-serif" font-size="14" lengthAdjust="spacing" textLength="59" x="991.5" y="321.7852">-Long id</text><text fill="#000000" font-family="sans-serif" font-size="14" lengthAdjust="spacing" textLength="91" x="991.5" y="338.2734">-String name</text></g><!--class TaskTag--><g id="elem_TaskTag"><rect codeLine="51" fill="#F1F1F1" height="81.5977" id="TaskTag" rx="2.5" ry="2.5" style="stroke:#181818;stroke-width:0.5;" width="99" x="1161" y="336.94"/><ellipse cx="1178.25" cy="357.2505" fill="#ADD1B2" rx="11" ry="11" style="stroke:#181818;stroke-width:1.0;"/><path d="M1180.7231,363.3936 Q1180.1421,363.6924 1179.5029,363.8419 Q1178.8638,363.9913 1178.1582,363.9913 Q1175.6514,363.9913 1174.3315,362.3394 Q1173.0117,360.6876 1173.0117,357.5665 Q1173.0117,354.4371 1174.3315,352.7852 Q1175.6514,351.1334 1178.1582,351.1334 Q1178.8638,351.1334 1179.5112,351.2828 Q1180.1587,351.4322 1180.7231,351.731 L1180.7231,354.4537 Q1180.0923,353.8726 1179.4988,353.6028 Q1178.9053,353.3331 1178.2744,353.3331 Q1176.9297,353.3331 1176.2449,354.3997 Q1175.5601,355.4664 1175.5601,357.5665 Q1175.5601,359.6583 1176.2449,360.7249 Q1176.9297,361.7916 1178.2744,361.7916 Q1178.9053,361.7916 1179.4988,361.5218 Q1180.0923,361.252 1180.7231,360.671 Z " fill="#000000"/><text fill="#000000" font-family="sans-serif" font-size="12" font-style="italic" lengthAdjust="spacing" textLength="66" x="1190.75" y="353.5416">&#171;join table&#187;</text><text fill="#000000" font-family="sans-serif" font-size="14" lengthAdjust="spacing" textLength="58" x="1194.75" y="369.608">TaskTag</text><line style="stroke:#181818;stroke-width:0.5;" x1="1162" x2="1259" y1="377.5611" y2="377.5611"/><text fill="#000000" font-family="sans-serif" font-size="14" lengthAdjust="spacing" textLength="87" x="1167" y="395.0962">-Long taskId</text><text fill="#000000" font-family="sans-serif" font-size="14" lengthAdjust="spacing" textLength="81" x="1167" y="411.5845">-Long tagId</text></g><!--class ProjectUser--><g id="elem_ProjectUser"><rect codeLine="55" fill="#F1F1F1" height="98.0859" id="ProjectUser" rx="2.5" ry="2.5" style="stroke:#181818;stroke-width:0.5;" width="200" x="638" y="383.69"/><ellipse cx="694.75" cy="404.0005" fill="#ADD1B2" rx="11" ry="11" style="stroke:#181818;stroke-width:1.0;"/><path d="M697.2231,410.1436 Q696.6421,410.4424 696.0029,410.5919 Q695.3638,410.7413 694.6582,410.7413 Q692.1514,410.7413 690.8315,409.0894 Q689.5117,407.4376 689.5117,404.3165 Q689.5117,401.1871 690.8315,399.5352 Q692.1514,397.8834 694.6582,397.8834 Q695.3638,397.8834 696.0112,398.0328 Q696.6587,398.1822 697.2231,398.481 L697.2231,401.2037 Q696.5923,400.6226 695.9988,400.3528 Q695.4053,400.0831 694.7744,400.0831 Q693.4297,400.0831 692.7449,401.1497 Q692.0601,402.2164 692.0601,404.3165 Q692.0601,406.4083 692.7449,407.4749 Q693.4297,408.5416 694.7744,408.5416 Q695.4053,408.5416 695.9988,408.2718 Q696.5923,408.002 697.2231,407.421 Z " fill="#000000"/><text fill="#000000" font-family="sans-serif" font-size="12" font-style="italic" lengthAdjust="spacing" textLength="66" x="721.25" y="400.2916">&#171;join table&#187;</text><text fill="#000000" font-family="sans-serif" font-size="14" lengthAdjust="spacing" textLength="78" x="715.25" y="416.358">ProjectUser</text><line style="stroke:#181818;stroke-width:0.5;" x1="639" x2="837" y1="424.3111" y2="424.3111"/><text fill="#000000" font-family="sans-serif" font-size="14" lengthAdjust="spacing" textLength="107" x="644" y="441.8462">-Long projectId</text><text fill="#000000" font-family="sans-serif" font-size="14" lengthAdjust="spacing" textLength="89" x="644" y="458.3345">-Long userId</text><text fill="#000000" font-family="sans-serif" font-size="14" lengthAdjust="spacing" textLength="188" x="644" y="474.8228">-LocalDateTime assignedAt</text></g><!--link User to Project--><g id="link_User_Project"><path codeLine="62" d="M197.29,354.74 C239.56,354.74 289.31,354.74 331.59,354.74 " fill="none" id="User-Project" style="stroke:#181818;stroke-width:1.0;"/><text fill="#000000" font-family="sans-serif" font-size="13" lengthAdjust="spacing" textLength="73" x="228" y="351.3084">assigned to</text><text fill="#000000" font-family="sans-serif" font-size="13" lengthAdjust="spacing" textLength="22" x="205.0957" y="367.8708">0..*</text><text fill="#000000" font-family="sans-serif" font-size="13" lengthAdjust="spacing" textLength="22" x="302.108" y="367.8469">0..*</text></g><!--link User to ProjectUser--><g id="link_User_ProjectUser"><path codeLine="63" d="M197.43,390.04 C238.21,403.6 286.84,417.53 332,424.74 C435.3,441.22 555.3,441.25 637.7,438.38 " fill="none" id="User-ProjectUser" style="stroke:#181818;stroke-width:1.0;stroke-dasharray:7.0,7.0;"/></g><!--link Project to ProjectUser--><g id="link_Project_ProjectUser"><path codeLine="64" d="M522.42,379.2 C532.41,381.76 542.41,384.31 552,386.74 C579.75,393.77 609.87,401.3 637.59,408.19 " fill="none" id="Project-ProjectUser" style="stroke:#181818;stroke-width:1.0;stroke-dasharray:7.0,7.0;"/></g><!--link Project to Task--><g id="link_Project_Task"><path codeLine="65" d="M522.39,321.75 C559.57,308.75 602.26,293.83 639.72,280.74 " fill="none" id="Project-Task" style="stroke:#181818;stroke-width:1.0;"/><text fill="#000000" font-family="sans-serif" font-size="13" lengthAdjust="spacing" textLength="54" x="553" y="290.8384">contains</text><text fill="#000000" font-family="sans-serif" font-size="13" lengthAdjust="spacing" textLength="8" x="529.9995" y="332.3789">1</text><text fill="#000000" font-family="sans-serif" font-size="13" lengthAdjust="spacing" textLength="22" x="610.0363" y="296.2374">0..*</text></g><!--link User to Task--><g id="link_User_Task"><path codeLine="66" d="M197.44,321.14 C238.33,307.84 287.04,293.62 332,284.74 C435.92,264.2 557.11,254.68 639.64,250.32 " fill="none" id="User-Task" style="stroke:#181818;stroke-width:1.0;"/><text fill="#000000" font-family="sans-serif" font-size="13" lengthAdjust="spacing" textLength="73" x="390.5" y="255.3184">assigned to</text><text fill="#000000" font-family="sans-serif" font-size="13" lengthAdjust="spacing" textLength="24" x="204.9944" y="331.8844">0..1</text><text fill="#000000" font-family="sans-serif" font-size="13" lengthAdjust="spacing" textLength="22" x="609.9506" y="263.6785">0..*</text></g><!--link Task to Tag--><g id="link_Task_Tag"><path codeLine="67" d="M836.25,267.04 C885.99,277.42 944.47,289.63 985.25,298.14 " fill="none" id="Task-Tag" style="stroke:#181818;stroke-width:1.0;"/><text fill="#000000" font-family="sans-serif" font-size="13" lengthAdjust="spacing" textLength="74" x="869" y="270.5884">tagged with</text><text fill="#000000" font-family="sans-serif" font-size="13" lengthAdjust="spacing" textLength="22" x="843.9316" y="281.5742">0..*</text><text fill="#000000" font-family="sans-serif" font-size="13" lengthAdjust="spacing" textLength="22" x="955.6023" y="310.3497">0..*</text></g><!--link Task to TaskTag--><g id="link_Task_TaskTag"><path codeLine="68" d="M836.5,305.66 C877.51,327.53 926.64,350.08 974,362.74 C1036.93,379.55 1112.54,381.26 1160.8,380.15 " fill="none" id="Task-TaskTag" style="stroke:#181818;stroke-width:1.0;stroke-dasharray:7.0,7.0;"/></g><!--link Tag to TaskTag--><g id="link_Tag_TaskTag"><path codeLine="69" d="M1088.99,329.25 C1111.7,338.39 1138.33,349.1 1160.77,358.13 " fill="none" id="Tag-TaskTag" style="stroke:#181818;stroke-width:1.0;stroke-dasharray:7.0,7.0;"/></g><!--link Task to TaskState--><g id="link_Task_TaskState"><path codeLine="70" d="M836.25,182.89 C885.82,150.34 939.0549,115.3938 979.8149,88.6238 " fill="none" id="Task-to-TaskState" style="stroke:#181818;stroke-width:1.0;"/><polygon fill="#181818" points="984.83,85.33,975.1115,86.9273,980.6508,88.0748,979.5032,93.614,984.83,85.33" style="stroke:#181818;stroke-width:1.0;"/></g><!--link Task to TaskCategory--><g id="link_Task_TaskCategory"><path codeLine="71" d="M836.25,226.44 C881.42,217.01 927.9264,207.2952 967.7164,198.9952 " fill="none" id="Task-to-TaskCategory" style="stroke:#181818;stroke-width:1.0;"/><polygon fill="#181818" points="973.59,197.77,963.9628,195.6921,968.6954,198.791,965.5964,203.5235,973.59,197.77" style="stroke:#181818;stroke-width:1.0;"/></g><!--SRC=[ZLDDRzf043splsB41QcI8RsYY8g0cr8LYB39jThOKxE9lMljZXkb5V-zuszeeEh56i-yUVjsvcsAFmZ8W5N9WI1M5YDIHeiHk1UbSsbb1gdII6yvWh5qCA8lHAbqRavarLD1k8gC3jGlX1jnK352XeoEdH2J4Tn9Xx0euUXW0g5yIZaOJKH50Nk75dwBWVVDw0HKp570h1mNND4ompw3cLHf1OrakfI4eSeG8eiSndCIHz6GFbZppBUvp7lE6QEBhCghc_y7SoZTosLQKfHUvItR0c8oSEMtoImuJ8nzWwW9Mjwyrh-AsmGVhHADSMZAUJNvorB_hXHvt5q2TP51huNl4MwNMp5ORRu_xBRtEpy8n62vtVYds4ubm-_szsBmsP-7-vtFRMlkUlJN_YOK0sxsvxl5bzDP9V_OmB5onyOZuwrXBVESAvKlEBiqy8gW4MEWWtAWD7oLF-Kdy6OmTxM7G49MEEgTL6ejZxozVJRSG2LeDki449VxWP9C-ETuxfVAYrVQtwsakBo8TbErQKH5ERmPZpyCmVFQgFNdj8FpGwonu_6f6j4YhwI77qzfAtDEWHyZIQLTV_WbrEd9LUgTodAOqt9I2QDU5Hrg74jfHYrAnDalbptUKMUnyrJh9F47]--></g></svg>