<svg xmlns="http://www.w3.org/2000/svg" xmlns:xlink="http://www.w3.org/1999/xlink" width="576" height="384" viewBox="0 0 432 288"><defs><style>*{stroke-linejoin:round;stroke-linecap:butt}</style></defs><g id="figure_1"><path id="patch_1" d="M0 288h432V0H0z" style="fill:#fff"/><g id="axes_1"><path id="patch_2" d="M38.27 260.12H421.2V14.76H38.27z" style="fill:#fff"/><path id="patch_3" d="M55.676 260.12h99.462V69.284H55.676z" clip-path="url(#pab4146dc37)" style="fill:#ff6b6b;stroke:#000;stroke-width:.5;stroke-linejoin:miter"/><path id="patch_4" d="M180.004 260.12h99.462v-54.524h-99.462z" clip-path="url(#pab4146dc37)" style="fill:#4ecdc4;stroke:#000;stroke-width:.5;stroke-linejoin:miter"/><path id="patch_5" d="M304.332 260.12h99.462v-54.524h-99.462z" clip-path="url(#pab4146dc37)" style="fill:#f7931e;stroke:#000;stroke-width:.5;stroke-linejoin:miter"/><g id="matplotlib.axis_1"><g id="xtick_1"><g id="line2d_1"><defs><path id="m647893cf9c" d="M0 0v3.5" style="stroke:#000;stroke-width:.8"/></defs><use xlink:href="#m647893cf9c" x="105.407" y="260.12" style="stroke:#000;stroke-width:.8"/></g><g id="text_1" transform="matrix(.1 0 0 -.1 75.365 274.718)"><defs><path id="DejaVuSans-44" d="M1259 4147V519h763q966 0 1414 437 448 438 448 1382 0 937-448 1373t-1414 436zm-631 519h1297q1356 0 1990-564 635-564 635-1764 0-1207-638-1773Q3275 0 1925 0H628z" transform="scale(.01563)"/><path id="DejaVuSans-65" d="M3597 1894v-281H953q38-594 358-905t892-311q331 0 642 81t618 244V178Q3153 47 2828-22t-659-69q-838 0-1327 487-489 488-489 1320 0 859 464 1363 464 505 1252 505 706 0 1117-455 411-454 411-1235m-575 169q-6 471-264 752-258 282-683 282-481 0-770-272t-333-766z" transform="scale(.01563)"/><path id="DejaVuSans-66" d="M2375 4863v-479h-550q-309 0-430-125-120-125-120-450v-309h947v-447h-947V0H697v3053H147v447h550v244q0 584 272 851 272 268 862 268z" transform="scale(.01563)"/><path id="DejaVuSans-6e" d="M3513 2113V0h-575v2094q0 497-194 743-194 247-581 247-466 0-735-297-269-296-269-809V0H581v3500h578v-544q207 316 486 472 280 156 646 156 603 0 912-373 310-373 310-1098" transform="scale(.01563)"/><path id="DejaVuSans-73" d="M2834 3397v-544q-243 125-506 187-262 63-544 63-428 0-642-131t-214-394q0-200 153-314t616-217l197-44q612-131 870-370t258-667q0-488-386-773Q2250-91 1575-91q-281 0-586 55T347 128v594q319-166 628-249 309-82 613-82 406 0 624 139 219 139 219 392 0 234-158 359-157 125-692 241l-200 47q-534 112-772 345-237 233-237 639 0 494 350 762 350 269 994 269 318 0 599-47 282-46 519-140" transform="scale(.01563)"/><path id="DejaVuSans-69" d="M603 3500h575V0H603zm0 1363h575v-729H603z" transform="scale(.01563)"/><path id="DejaVuSans-76" d="M191 3500h609L1894 563l1094 2937h609L2284 0h-781z" transform="scale(.01563)"/><path id="DejaVuSans-43" d="M4122 4306v-665q-319 297-680 443-361 147-767 147-800 0-1225-489t-425-1414q0-922 425-1411t1225-489q406 0 767 147t680 444V359q-331-225-702-338-370-112-782-112-1060 0-1670 648-609 649-609 1771 0 1125 609 1773 610 649 1670 649 418 0 788-111 371-111 696-333" transform="scale(.01563)"/></defs><use xlink:href="#DejaVuSans-44"/><use xlink:href="#DejaVuSans-65" transform="translate(77.002)"/><use xlink:href="#DejaVuSans-66" transform="translate(138.525)"/><use xlink:href="#DejaVuSans-65" transform="translate(173.73)"/><use xlink:href="#DejaVuSans-6e" transform="translate(235.254)"/><use xlink:href="#DejaVuSans-73" transform="translate(298.633)"/><use xlink:href="#DejaVuSans-69" transform="translate(350.732)"/><use xlink:href="#DejaVuSans-76" transform="translate(378.516)"/><use xlink:href="#DejaVuSans-65" transform="translate(437.695)"/><use xlink:href="#DejaVuSans-43" transform="translate(531.006)"/></g></g><g id="xtick_2"><use xlink:href="#m647893cf9c" id="line2d_2" x="229.735" y="260.12" style="stroke:#000;stroke-width:.8"/><g id="text_2" transform="matrix(.1 0 0 -.1 205.07 274.718)"><defs><path id="DejaVuSans-4d" d="M628 4666h941l1190-3175 1197 3175h941V0h-616v4097L3078 897h-634L1241 4097V0H628z" transform="scale(.01563)"/><path id="DejaVuSans-6d" d="M3328 2828q216 388 516 572t706 184q547 0 844-383 297-382 297-1088V0h-578v2094q0 503-179 746-178 244-543 244-447 0-707-297-259-296-259-809V0h-578v2094q0 506-178 748t-550 242q-441 0-701-298-259-298-259-808V0H581v3500h578v-544q197 322 472 475t653 153q382 0 649-194 267-193 395-562" transform="scale(.01563)"/><path id="DejaVuSans-61" d="M2194 1759q-697 0-966-159t-269-544q0-306 202-486 202-179 548-179 479 0 768 339t289 901v128zm1147 238V0h-575v531q-197-318-491-470T1556-91q-537 0-855 302-317 302-317 808 0 590 395 890 396 300 1180 300h807v57q0 397-261 614t-733 217q-300 0-585-72-284-72-546-216v532q315 122 612 182 297 61 578 61 760 0 1135-394 375-393 375-1193" transform="scale(.01563)"/><path id="DejaVuSans-6c" d="M603 4863h575V0H603z" transform="scale(.01563)"/></defs><use xlink:href="#DejaVuSans-4d"/><use xlink:href="#DejaVuSans-69" transform="translate(86.28)"/><use xlink:href="#DejaVuSans-6e" transform="translate(114.063)"/><use xlink:href="#DejaVuSans-69" transform="translate(177.441)"/><use xlink:href="#DejaVuSans-6d" transform="translate(205.225)"/><use xlink:href="#DejaVuSans-61" transform="translate(302.637)"/><use xlink:href="#DejaVuSans-6c" transform="translate(363.916)"/><use xlink:href="#DejaVuSans-43" transform="translate(423.486)"/></g></g><g id="xtick_3"><use xlink:href="#m647893cf9c" id="line2d_3" x="354.063" y="260.12" style="stroke:#000;stroke-width:.8"/><g id="text_3" transform="matrix(.1 0 0 -.1 343.08 274.718)"><defs><path id="DejaVuSans-52" d="M2841 2188q203-69 395-294t386-619L4263 0h-679l-596 1197q-232 469-449 622t-592 153h-688V0H628v4666h1425q800 0 1194-335 394-334 394-1009 0-441-205-732-205-290-595-402M1259 4147V2491h794q456 0 689 211t233 620-233 617-689 208z" transform="scale(.01563)"/><path id="DejaVuSans-75" d="M544 1381v2119h575V1403q0-497 193-746 194-248 582-248 465 0 735 297 271 297 271 810v1984h575V0h-575v538q-209-319-486-474-276-155-642-155-603 0-916 375-312 375-312 1097m1447 2203" transform="scale(.01563)"/><path id="DejaVuSans-74" d="M1172 4494v-994h1184v-447H1172V1153q0-428 117-550t477-122h590V0h-590q-666 0-919 248-253 249-253 905v1900H172v447h422v994z" transform="scale(.01563)"/></defs><use xlink:href="#DejaVuSans-52"/><use xlink:href="#DejaVuSans-75" transform="translate(64.982)"/><use xlink:href="#DejaVuSans-73" transform="translate(128.361)"/><use xlink:href="#DejaVuSans-74" transform="translate(180.46)"/></g></g></g><g id="matplotlib.axis_2"><g id="ytick_1"><g id="line2d_4"><defs><path id="ma2d5224af1" d="M0 0h-3.5" style="stroke:#000;stroke-width:.8"/></defs><use xlink:href="#ma2d5224af1" x="38.27" y="260.12" style="stroke:#000;stroke-width:.8"/></g><g id="text_4" transform="matrix(.1 0 0 -.1 24.907 263.92)"><defs><path id="DejaVuSans-30" d="M2034 4250q-487 0-733-480-245-479-245-1442 0-959 245-1439 246-480 733-480 491 0 736 480 246 480 246 1439 0 963-246 1442-245 480-736 480m0 500q785 0 1199-621 414-620 414-1801 0-1178-414-1799Q2819-91 2034-91q-784 0-1198 620-414 621-414 1799 0 1181 414 1801 414 621 1198 621" transform="scale(.01563)"/></defs><use xlink:href="#DejaVuSans-30"/></g></g><g id="ytick_2"><use xlink:href="#ma2d5224af1" id="line2d_5" x="38.27" y="232.858" style="stroke:#000;stroke-width:.8"/><g id="text_5" transform="matrix(.1 0 0 -.1 24.907 236.657)"><defs><path id="DejaVuSans-31" d="M794 531h1031v3560L703 3866v575l1116 225h631V531h1031V0H794z" transform="scale(.01563)"/></defs><use xlink:href="#DejaVuSans-31"/></g></g><g id="ytick_3"><use xlink:href="#ma2d5224af1" id="line2d_6" x="38.27" y="205.596" style="stroke:#000;stroke-width:.8"/><g id="text_6" transform="matrix(.1 0 0 -.1 24.907 209.395)"><defs><path id="DejaVuSans-32" d="M1228 531h2203V0H469v531q359 372 979 998 621 627 780 809 303 340 423 576 121 236 121 464 0 372-261 606-261 235-680 235-297 0-627-103-329-103-704-313v638q381 153 712 231 332 78 607 78 725 0 1156-363 431-362 431-968 0-288-108-546-107-257-392-607-78-91-497-524-418-433-1181-1211" transform="scale(.01563)"/></defs><use xlink:href="#DejaVuSans-32"/></g></g><g id="ytick_4"><use xlink:href="#ma2d5224af1" id="line2d_7" x="38.27" y="178.333" style="stroke:#000;stroke-width:.8"/><g id="text_7" transform="matrix(.1 0 0 -.1 24.907 182.133)"><defs><path id="DejaVuSans-33" d="M2597 2516q453-97 707-404 255-306 255-756 0-690-475-1069Q2609-91 1734-91q-293 0-604 58T488 141v609q262-153 574-231 313-78 654-78 593 0 904 234t311 681q0 413-289 645-289 233-804 233h-544v519h569q465 0 712 186t247 536q0 359-255 551-254 193-729 193-260 0-557-57-297-56-653-174v562q360 100 674 150t592 50q719 0 1137-327 419-326 419-882 0-388-222-655t-631-370" transform="scale(.01563)"/></defs><use xlink:href="#DejaVuSans-33"/></g></g><g id="ytick_5"><use xlink:href="#ma2d5224af1" id="line2d_8" x="38.27" y="151.071" style="stroke:#000;stroke-width:.8"/><g id="text_8" transform="matrix(.1 0 0 -.1 24.907 154.87)"><defs><path id="DejaVuSans-34" d="M2419 4116 825 1625h1594zm-166 550h794V1625h666v-525h-666V0h-628v1100H313v609z" transform="scale(.01563)"/></defs><use xlink:href="#DejaVuSans-34"/></g></g><g id="ytick_6"><use xlink:href="#ma2d5224af1" id="line2d_9" x="38.27" y="123.809" style="stroke:#000;stroke-width:.8"/><g id="text_9" transform="matrix(.1 0 0 -.1 24.907 127.608)"><defs><path id="DejaVuSans-35" d="M691 4666h2478v-532H1269V2991q137 47 274 70 138 23 276 23 781 0 1237-428 457-428 457-1159 0-753-469-1171Q2575-91 1722-91q-294 0-599 50Q819 9 494 109v635q281-153 581-228t634-75q541 0 856 284 316 284 316 772 0 487-316 771-315 285-856 285-253 0-505-56-251-56-513-175z" transform="scale(.01563)"/></defs><use xlink:href="#DejaVuSans-35"/></g></g><g id="ytick_7"><use xlink:href="#ma2d5224af1" id="line2d_10" x="38.27" y="96.547" style="stroke:#000;stroke-width:.8"/><g id="text_10" transform="matrix(.1 0 0 -.1 24.907 100.346)"><defs><path id="DejaVuSans-36" d="M2113 2584q-425 0-674-291-248-290-248-796 0-503 248-796 249-292 674-292t673 292q248 293 248 796 0 506-248 796-248 291-673 291m1253 1979v-575q-238 112-480 171-242 60-480 60-625 0-955-422-329-422-376-1275 184 272 462 417 279 145 613 145 703 0 1111-427 408-426 408-1160 0-719-425-1154Q2819-91 2113-91q-810 0-1238 620-428 621-428 1799 0 1106 525 1764t1409 658q238 0 480-47t505-140" transform="scale(.01563)"/></defs><use xlink:href="#DejaVuSans-36"/></g></g><g id="ytick_8"><use xlink:href="#ma2d5224af1" id="line2d_11" x="38.27" y="69.284" style="stroke:#000;stroke-width:.8"/><g id="text_11" transform="matrix(.1 0 0 -.1 24.907 73.084)"><defs><path id="DejaVuSans-37" d="M525 4666h3000v-269L1831 0h-659l1594 4134H525z" transform="scale(.01563)"/></defs><use xlink:href="#DejaVuSans-37"/></g></g><g id="ytick_9"><use xlink:href="#ma2d5224af1" id="line2d_12" x="38.27" y="42.022" style="stroke:#000;stroke-width:.8"/><g id="text_12" transform="matrix(.1 0 0 -.1 24.907 45.821)"><defs><path id="DejaVuSans-38" d="M2034 2216q-450 0-708-241-257-241-257-662 0-422 257-663 258-241 708-241t709 242q260 243 260 662 0 421-258 662-257 241-711 241m-631 268q-406 100-633 378-226 279-226 679 0 559 398 884 399 325 1092 325 697 0 1094-325t397-884q0-400-227-679-226-278-629-378 456-106 710-416 255-309 255-755 0-679-414-1042Q2806-91 2034-91q-771 0-1186 362-414 363-414 1042 0 446 256 755 257 310 713 416m-231 997q0-362 226-565 227-203 636-203 407 0 636 203 230 203 230 565 0 363-230 566-229 203-636 203-409 0-636-203-226-203-226-566" transform="scale(.01563)"/></defs><use xlink:href="#DejaVuSans-38"/></g></g><g id="ytick_10"><use xlink:href="#ma2d5224af1" id="line2d_13" x="38.27" y="14.76" style="stroke:#000;stroke-width:.8"/><g id="text_13" transform="matrix(.1 0 0 -.1 24.907 18.56)"><defs><path id="DejaVuSans-39" d="M703 97v575q238-113 481-172 244-59 479-59 625 0 954 420 330 420 377 1277-181-269-460-413-278-144-615-144-700 0-1108 423-408 424-408 1159 0 718 425 1152 425 435 1131 435 810 0 1236-621 427-620 427-1801 0-1103-524-1761Q2575-91 1691-91q-238 0-482 47Q966 3 703 97m1256 1978q425 0 673 290 249 291 249 798 0 503-249 795-248 292-673 292t-673-292-248-795q0-507 248-798 248-290 673-290" transform="scale(.01563)"/></defs><use xlink:href="#DejaVuSans-39"/></g></g><g id="text_14" transform="matrix(0 -.1 -.1 0 18.828 180.637)"><defs><path id="DejaVuSans-49" d="M628 4666h631V0H628z" transform="scale(.01563)"/><path id="DejaVuSans-72" d="M2631 2963q-97 56-211 82-114 27-251 27-488 0-749-317t-261-911V0H581v3500h578v-544q182 319 472 473 291 155 707 155 59 0 131-8 72-7 159-23z" transform="scale(.01563)"/><path id="DejaVuSans-63" d="M3122 3366v-538q-244 135-489 202t-495 67q-560 0-870-355-309-354-309-995t309-996q310-354 870-354 250 0 495 67t489 202V134Q2881 22 2623-34q-257-57-548-57-791 0-1257 497-465 497-465 1341 0 856 470 1346 471 491 1290 491 265 0 518-55 253-54 491-163" transform="scale(.01563)"/><path id="DejaVuSans-6f" d="M1959 3097q-462 0-731-361t-269-989 267-989q268-361 733-361 460 0 728 362 269 363 269 988 0 622-269 986-268 364-728 364m0 487q750 0 1178-488 429-487 429-1349 0-859-429-1349Q2709-91 1959-91q-753 0-1180 489-426 490-426 1349 0 862 426 1349 427 488 1180 488" transform="scale(.01563)"/></defs><use xlink:href="#DejaVuSans-49"/><use xlink:href="#DejaVuSans-6e" transform="translate(29.492)"/><use xlink:href="#DejaVuSans-73" transform="translate(92.871)"/><use xlink:href="#DejaVuSans-74" transform="translate(144.97)"/><use xlink:href="#DejaVuSans-72" transform="translate(184.18)"/><use xlink:href="#DejaVuSans-75" transform="translate(225.293)"/><use xlink:href="#DejaVuSans-63" transform="translate(288.672)"/><use xlink:href="#DejaVuSans-74" transform="translate(343.652)"/><use xlink:href="#DejaVuSans-69" transform="translate(382.861)"/><use xlink:href="#DejaVuSans-6f" transform="translate(410.645)"/><use xlink:href="#DejaVuSans-6e" transform="translate(471.826)"/><use xlink:href="#DejaVuSans-43" transform="translate(566.992)"/><use xlink:href="#DejaVuSans-6f" transform="translate(636.816)"/><use xlink:href="#DejaVuSans-75" transform="translate(697.998)"/><use xlink:href="#DejaVuSans-6e" transform="translate(761.377)"/><use xlink:href="#DejaVuSans-74" transform="translate(824.756)"/></g></g><path id="patch_6" d="M38.27 260.12V14.76" style="fill:none;stroke:#000;stroke-width:.8;stroke-linejoin:miter;stroke-linecap:square"/><path id="patch_7" d="M38.27 260.12H421.2" style="fill:none;stroke:#000;stroke-width:.8;stroke-linejoin:miter;stroke-linecap:square"/><g id="text_15" transform="matrix(.1 0 0 -.1 101.928 64.479)"><defs><path id="DejaVuSans-Bold-37" d="M428 4666h3516v-678L2125 0H953l1722 3781H428z" transform="scale(.01563)"/></defs><use xlink:href="#DejaVuSans-Bold-37"/></g><g id="text_16" transform="matrix(.1 0 0 -.1 226.256 200.79)"><defs><path id="DejaVuSans-Bold-32" d="M1844 884h2053V0H506v884l1703 1504q229 206 338 403t109 409q0 328-220 528t-586 200q-281 0-616-120-334-120-715-358v1025q406 134 803 204 397 71 778 71 838 0 1302-369 464-368 464-1028 0-381-197-711-197-329-828-883z" transform="scale(.01563)"/></defs><use xlink:href="#DejaVuSans-Bold-32"/></g><use xlink:href="#DejaVuSans-Bold-32" id="text_17" transform="matrix(.1 0 0 -.1 350.584 200.79)"/><g id="legend_1"><path id="patch_8" d="M322.116 66.794H414.2q2 0 2-2V21.76q0-2-2-2h-92.084q-2 0-2 2v43.034q0 2 2 2z" style="fill:#fff;opacity:.8;stroke:#ccc;stroke-linejoin:miter"/><path id="patch_9" d="M324.116 31.358h20v-7h-20z" style="fill:#ff6b6b;stroke:#000;stroke-width:.5;stroke-linejoin:miter"/><g id="text_18" transform="matrix(.1 0 0 -.1 352.116 31.358)"><use xlink:href="#DejaVuSans-44"/><use xlink:href="#DejaVuSans-65" transform="translate(77.002)"/><use xlink:href="#DejaVuSans-66" transform="translate(138.525)"/><use xlink:href="#DejaVuSans-65" transform="translate(173.73)"/><use xlink:href="#DejaVuSans-6e" transform="translate(235.254)"/><use xlink:href="#DejaVuSans-73" transform="translate(298.633)"/><use xlink:href="#DejaVuSans-69" transform="translate(350.732)"/><use xlink:href="#DejaVuSans-76" transform="translate(378.516)"/><use xlink:href="#DejaVuSans-65" transform="translate(437.695)"/><use xlink:href="#DejaVuSans-43" transform="translate(531.006)"/></g><path id="patch_10" d="M324.116 46.037h20v-7h-20z" style="fill:#4ecdc4;stroke:#000;stroke-width:.5;stroke-linejoin:miter"/><g id="text_19" transform="matrix(.1 0 0 -.1 352.116 46.037)"><use xlink:href="#DejaVuSans-4d"/><use xlink:href="#DejaVuSans-69" transform="translate(86.28)"/><use xlink:href="#DejaVuSans-6e" transform="translate(114.063)"/><use xlink:href="#DejaVuSans-69" transform="translate(177.441)"/><use xlink:href="#DejaVuSans-6d" transform="translate(205.225)"/><use xlink:href="#DejaVuSans-61" transform="translate(302.637)"/><use xlink:href="#DejaVuSans-6c" transform="translate(363.916)"/><use xlink:href="#DejaVuSans-43" transform="translate(423.486)"/></g><path id="patch_11" d="M324.116 60.715h20v-7h-20z" style="fill:#f7931e;stroke:#000;stroke-width:.5;stroke-linejoin:miter"/><g id="text_20" transform="matrix(.1 0 0 -.1 352.116 60.715)"><use xlink:href="#DejaVuSans-52"/><use xlink:href="#DejaVuSans-75" transform="translate(64.982)"/><use xlink:href="#DejaVuSans-73" transform="translate(128.361)"/><use xlink:href="#DejaVuSans-74" transform="translate(180.46)"/></g></g></g></g><defs><clipPath id="pab4146dc37"><path d="M38.27 14.76H421.2v245.36H38.27z"/></clipPath></defs></svg>